# xmcd
#
# Track frame offsets:
#	150
#	16680
#	46440
#	70365
#	95944
#	161622
#	180784
#	204215
#
# Disc length: 3383 seconds
#
# Revision: 1
# Processed by: cddbd v1.5PL3 Copyright (c) Steve Scherf et al.
# Submitted via: audiograbber 1.83.01
#
DISCID=5f0d3508
DTITLE=Parker's Alibi - Exposed
DYEAR=2000
DGENRE=Blues
TTITLE0=Cheatin' On You
TTITLE1=Five Long Years
TTITLE2=Brick
TTITLE3=Funny How
TTITLE4=It's A Man's, Man's, Man's World
TTITLE5=Misfits and Fools
TTITLE6=Later Somehow
TTITLE7=Almost Cut My Hair
EXTD=
EXTT0=
EXTT1=
EXTT2=
EXTT3=
EXTT4=
EXTT5=
EXTT6=
EXTT7=
PLAYORDER=
